<svg xmlns="http://www.w3.org/2000/svg" width="200" height="163.656" viewBox="0 0 200 163.656"><path d="M20.457,0a20.3,20.3,0,0,0-10.7,3.048L99.99,100.886,190.242,3.042A20.328,20.328,0,0,0,179.543,0ZM.941,14.315A20.436,20.436,0,0,0,0,20.457V143.186a20.336,20.336,0,0,0,2.76,10.23L65.148,84.864Zm198.118,0L134.852,84.864l62.389,68.551A20.337,20.337,0,0,0,200,143.186V20.457a20.534,20.534,0,0,0-.94-6.139ZM75.112,95.807,13.644,162.47a20.391,20.391,0,0,0,6.806,1.186H179.537a20.433,20.433,0,0,0,6.8-1.186L124.882,95.82,100.145,123l-.148-.2-.135.2Z" transform="translate(0)"/></svg>